# xmcd
#
# Track frame offsets: 
#        150
#        16743
#        32059
#        49571
#        66913
#        83916
#        100623
#        117176
#        135235
#        149727
#
# Disc length: 2231 seconds
#
# Revision: 0
# Processed by: cddbd v1.5.2PL0 Copyright (c) Steve Scherf et al.
# Submitted via: ExactAudioCopy v0.99pb5
#
DISCID=7c08b50a
DTITLE=Del the Funky Homosapien - Golden Era
DYEAR=2011
DGENRE=Hip-Hop
TTITLE0=Break the Bank
TTITLE1=Calculate
TTITLE2=Double Barrel
TTITLE3=Makes No Sense
TTITLE4=One Out of a Million
TTITLE5=Pearly Gates
TTITLE6=Raw
TTITLE7=Upside Down
TTITLE8=Descending
TTITLE9=Fallout
EXTD=
EXTT0=
EXTT1=
EXTT2=
EXTT3=
EXTT4=
EXTT5=
EXTT6=
EXTT7=
EXTT8=
EXTT9=
PLAYORDER=
